
<svg width="1500" height="1200" viewBox="0 0 1500 1200" fill="none" xmlns="http://www.w3.org/2000/svg">
<rect width="1500" height="1200" fill="white"/>
<path d="M1073.64 202.726C871.635 219.065 819.647 162.622 766.175 137.371C574.055 13.1743 364.989 56.3641 319.04 365.457C317.339 376.903 314.653 388.405 310.488 399.202C246.089 566.142 228.737 503.534 143.4 630.895C11.7942 825.74 192.883 950.43 234.656 977.582C276.429 1004.73 657.424 1137.47 722.78 1137.47C788.136 1137.47 1403.39 1163.68 1403.39 916.244C1344.77 748.541 1528.62 548.346 1403.39 380.969C1315.7 263.76 1275.65 186.388 1073.64 202.726Z" fill="#EDF3FF"/>
<path d="M1103.42 1074.42V1117.83C1103.42 1119.94 1101.76 1121.61 1099.64 1121.61H993.016C990.597 1121.61 988.63 1119.64 988.782 1117.07C988.933 1115.56 989.084 1113.89 989.387 1112.53C989.689 1110.87 989.992 1109.36 990.445 1108C996.041 1088.49 1013.59 1083.04 1023.72 1079.41C1032.49 1076.23 1045.95 1067.76 1052.91 1063.23C1054.87 1061.87 1057.29 1061.87 1059.26 1062.77C1059.87 1063.08 1060.47 1063.53 1060.92 1063.98L1078.92 1080.92C1080.89 1082.89 1083.91 1083.04 1086.33 1081.53L1099.19 1072.91L1099.79 1072.45C1101.31 1071.55 1103.42 1072.6 1103.42 1074.42Z" fill="#8730CC"/>
<path d="M1103.42 1108V1117.83C1103.42 1119.94 1101.76 1121.61 1099.64 1121.61H993.016C990.597 1121.61 988.63 1119.49 988.782 1117.07C989.084 1113.74 989.538 1110.72 990.445 1108H1103.42Z" fill="#A263D5"/>
<path d="M1103.42 1112.53V1117.83C1103.42 1119.94 1101.76 1121.61 1099.64 1121.61H993.016C990.597 1121.61 988.63 1119.49 988.782 1117.07C988.933 1115.56 989.084 1114.05 989.387 1112.53H1103.42Z" fill="#63179F"/>
<path d="M1039.9 1100.43C1039.45 1100.43 1038.99 1100.28 1038.69 1099.83L1022.51 1080.32C1021.9 1079.71 1022.05 1078.65 1022.66 1078.2C1023.26 1077.6 1024.32 1077.75 1024.78 1078.35L1040.96 1097.86C1041.56 1098.47 1041.41 1099.53 1040.81 1099.98C1040.66 1100.28 1040.2 1100.43 1039.9 1100.43Z" fill="#A263D5"/>
<path d="M1063.95 1101.49C1063.5 1101.49 1063.19 1101.34 1062.89 1101.04L1037.63 1073.06C1037.03 1072.45 1037.18 1071.55 1037.78 1070.94C1038.39 1070.34 1039.3 1070.49 1039.9 1071.09L1065.16 1099.07C1065.76 1099.68 1065.61 1100.58 1065.01 1101.19C1064.71 1101.49 1064.25 1101.49 1063.95 1101.49Z" fill="#A263D5"/>
<path d="M1027.5 1074.72C1022.81 1074.72 1017.82 1073.36 1013.13 1070.79C1012.53 1070.49 1012.37 1069.73 1012.68 1069.28C1012.98 1068.67 1013.74 1068.52 1014.19 1068.82C1020.09 1072.15 1026.29 1073.21 1031.58 1072.15C1031.28 1072 1030.98 1071.85 1030.83 1071.7C1028.86 1070.34 1026.74 1068.82 1025.53 1066.71C1024.02 1064.14 1024.17 1060.96 1025.99 1058.99C1027.5 1057.18 1029.92 1056.88 1032.04 1056.88C1032.04 1056.57 1032.34 1056.27 1032.64 1056.12C1033.25 1055.82 1033.85 1055.97 1034.15 1056.57C1034.3 1056.72 1034.3 1056.88 1034.46 1057.03C1035.36 1057.03 1036.42 1057.18 1037.33 1057.18C1038.54 1057.33 1039.75 1057.48 1040.81 1058.09C1041.56 1058.54 1042.17 1059.3 1042.62 1060.2C1043.83 1062.77 1043.53 1065.95 1041.87 1068.52C1040.51 1070.64 1038.24 1072.3 1035.36 1073.51C1032.79 1074.27 1030.22 1074.72 1027.5 1074.72ZM1032.49 1058.99C1030.67 1058.99 1028.71 1059.14 1027.5 1060.35C1026.29 1061.72 1026.44 1063.83 1027.35 1065.35C1028.41 1067.16 1030.22 1068.52 1031.88 1069.58C1033.25 1070.49 1034.15 1070.64 1034.76 1070.34C1035.36 1070.03 1035.51 1069.13 1035.67 1068.52C1036.12 1065.35 1034.76 1062.02 1032.94 1058.84C1032.94 1058.99 1032.64 1058.99 1032.49 1058.99ZM1035.67 1059.14C1037.33 1062.32 1038.54 1065.65 1037.93 1069.13C1037.93 1069.13 1037.93 1069.13 1037.93 1069.28C1038.54 1068.67 1039.3 1068.07 1039.75 1067.31C1040.96 1065.35 1041.26 1062.93 1040.35 1061.26C1040.05 1060.66 1039.75 1060.35 1039.45 1060.05C1038.84 1059.6 1037.93 1059.6 1037.03 1059.45C1036.57 1059.14 1036.12 1059.14 1035.67 1059.14Z" fill="#63179F"/>
<path d="M1099.19 1055.82V1073.06L1086.33 1081.68C1084.06 1083.19 1081.04 1082.89 1078.92 1081.07L1060.92 1064.13C1060.47 1063.68 1059.86 1063.23 1059.26 1062.92L1060.77 1055.82H1099.19Z" fill="#956D6B"/>
<path d="M1052 1055.82H1139.32L1208.15 553.843H1082.7L1052 1055.82Z" fill="#E72722"/>
<path d="M1139.32 1055.82H1052L1053.09 1038.06H1141.75L1139.32 1055.82Z" fill="#CF221D"/>
<path d="M1208.15 553.843L1139.32 1055.82H1115.51L1179.66 553.843H1208.15Z" fill="#CF221D"/>
<path d="M1082.7 1030.71H1082.55C1081.8 1030.56 1081.19 1029.8 1081.19 1029.05L1128.68 656.99C1128.83 656.234 1129.59 655.629 1130.35 655.629C1131.1 655.78 1131.71 656.536 1131.71 657.293L1084.22 1029.35C1084.07 1030.11 1083.46 1030.71 1082.7 1030.71Z" fill="#A40001"/>
<path d="M1345.43 1074.42V1117.83C1345.43 1119.94 1343.77 1121.61 1341.65 1121.61H1235.03C1232.61 1121.61 1230.64 1119.64 1230.79 1117.07C1230.94 1115.56 1231.09 1113.89 1231.4 1112.53C1231.7 1110.87 1232 1109.36 1232.46 1108C1238.05 1088.49 1255.6 1083.04 1265.73 1079.41C1274.5 1076.23 1287.96 1067.76 1294.92 1063.23C1296.88 1061.87 1299.3 1061.87 1301.27 1062.77C1301.88 1063.08 1302.48 1063.53 1302.93 1063.98L1320.93 1080.92C1322.9 1082.89 1325.92 1083.04 1328.34 1081.53L1341.2 1072.91L1341.8 1072.45C1343.32 1071.55 1345.43 1072.6 1345.43 1074.42Z" fill="#8730CC"/>
<path d="M1345.43 1108V1117.83C1345.43 1119.94 1343.77 1121.61 1341.65 1121.61H1235.03C1232.61 1121.61 1230.64 1119.49 1230.79 1117.07C1231.09 1113.74 1231.55 1110.72 1232.46 1108H1345.43Z" fill="#A263D5"/>
<path d="M1345.43 1112.53V1117.83C1345.43 1119.94 1343.77 1121.61 1341.65 1121.61H1235.03C1232.61 1121.61 1230.64 1119.49 1230.79 1117.07C1230.94 1115.56 1231.09 1114.05 1231.4 1112.53H1345.43Z" fill="#63179F"/>
<path d="M1281.91 1100.43C1281.46 1100.43 1281 1100.28 1280.7 1099.83L1264.52 1080.32C1263.91 1079.71 1264.06 1078.65 1264.67 1078.2C1265.27 1077.6 1266.33 1077.75 1266.79 1078.35L1282.97 1097.86C1283.57 1098.47 1283.42 1099.53 1282.82 1099.98C1282.52 1100.28 1282.21 1100.43 1281.91 1100.43Z" fill="#A263D5"/>
<path d="M1305.81 1101.49C1305.35 1101.49 1305.05 1101.34 1304.75 1101.04L1279.49 1073.06C1278.89 1072.45 1279.04 1071.55 1279.64 1070.94C1280.25 1070.34 1281.16 1070.49 1281.76 1071.09L1307.02 1099.07C1307.62 1099.68 1307.47 1100.58 1306.87 1101.19C1306.56 1101.49 1306.26 1101.49 1305.81 1101.49Z" fill="#A263D5"/>
<path d="M1269.51 1074.72C1264.82 1074.72 1259.83 1073.36 1255.14 1070.79C1254.54 1070.49 1254.38 1069.73 1254.69 1069.28C1254.99 1068.67 1255.75 1068.52 1256.2 1068.82C1262.1 1072.15 1268.3 1073.21 1273.59 1072.15C1273.29 1072 1272.99 1071.85 1272.84 1071.7C1270.87 1070.34 1268.75 1068.82 1267.54 1066.71C1266.03 1064.14 1266.18 1060.96 1268 1058.99C1269.51 1057.18 1271.93 1056.88 1274.05 1056.88C1274.05 1056.57 1274.35 1056.27 1274.65 1056.12C1275.26 1055.82 1275.86 1055.97 1276.16 1056.57C1276.31 1056.72 1276.31 1056.88 1276.47 1057.03C1277.37 1057.03 1278.43 1057.18 1279.34 1057.18C1280.55 1057.33 1281.76 1057.48 1282.82 1058.09C1283.57 1058.54 1284.18 1059.3 1284.63 1060.2C1285.84 1062.77 1285.54 1065.95 1283.88 1068.52C1282.52 1070.64 1280.25 1072.3 1277.37 1073.51C1274.8 1074.27 1272.23 1074.72 1269.51 1074.72ZM1274.5 1058.99C1272.68 1058.99 1270.72 1059.14 1269.51 1060.35C1268.3 1061.72 1268.45 1063.83 1269.36 1065.35C1270.42 1067.16 1272.23 1068.52 1273.89 1069.58C1275.26 1070.49 1276.16 1070.64 1276.77 1070.34C1277.37 1070.03 1277.52 1069.13 1277.68 1068.52C1278.13 1065.35 1276.77 1062.02 1274.95 1058.84C1274.8 1058.99 1274.65 1058.99 1274.5 1058.99ZM1277.68 1059.14C1279.34 1062.32 1280.55 1065.65 1279.94 1069.13C1279.94 1069.13 1279.94 1069.13 1279.94 1069.28C1280.55 1068.67 1281.31 1068.07 1281.76 1067.31C1282.97 1065.35 1283.27 1062.93 1282.36 1061.26C1282.06 1060.66 1281.76 1060.35 1281.46 1060.05C1280.85 1059.6 1279.94 1059.6 1279.04 1059.45C1278.58 1059.14 1278.13 1059.14 1277.68 1059.14Z" fill="#63179F"/>
<path d="M1341.2 1055.82V1073.06L1328.34 1081.68C1326.07 1083.19 1323.05 1082.89 1320.93 1081.07L1302.93 1064.13C1302.48 1063.68 1301.87 1063.23 1301.27 1062.92L1302.78 1055.82H1341.2Z" fill="#956D6B"/>
<path d="M1343.92 1055.82H1258.11L1173.96 553.843H1309.14L1343.92 1055.82Z" fill="#E72722"/>
<path d="M1258.11 1055.82H1343.92L1342.57 1036.37H1254.85L1258.11 1055.82Z" fill="#CF221D"/>
<path d="M1173.96 553.843L1258.11 1055.82H1280.9L1198.33 553.843H1173.96Z" fill="#CF221D"/>
<path d="M1310.8 1036.76C1310.04 1036.76 1309.44 1036.16 1309.29 1035.4L1256.5 567.001C1256.35 566.245 1256.96 565.488 1257.86 565.337C1258.77 565.186 1259.38 565.791 1259.53 566.698L1312.31 1035.1C1312.46 1035.85 1311.86 1036.61 1310.95 1036.76H1310.8Z" fill="#A40001"/>
<path d="M1307.62 596.342C1304.9 596.342 1302.33 595.434 1300.06 593.922C1288.87 585.452 1290.08 558.531 1290.23 557.321C1290.23 556.414 1290.99 555.809 1291.74 555.96C1292.65 555.96 1293.25 556.716 1293.1 557.473C1293.1 557.775 1291.89 584.091 1301.72 591.502C1304.6 593.62 1307.93 593.922 1312.16 592.561C1312.92 592.258 1313.82 592.712 1314.13 593.468C1314.43 594.225 1313.97 595.132 1313.22 595.434C1311.4 595.888 1309.44 596.342 1307.62 596.342Z" fill="#A40001"/>
<path d="M1010.88 332.721L1051.18 424.64L1079.81 393.446L1081.31 572.01H1310.47C1308.98 552.086 1308.88 547.41 1308.27 539.09C1307.94 534.726 1307.7 531.615 1307.7 531.615C1306.47 525.879 1306.36 519.947 1306.52 515.741C1306.64 512.208 1306.95 509.887 1306.95 509.887C1338.59 459.524 1337.08 367.764 1337.08 334.989C1337.08 302.213 1300.73 253.433 1258.92 229.701C1256.5 228.317 1253.93 227.051 1251.24 225.865C1226.23 214.883 1190.64 212.404 1157.34 217.269C1132.62 220.868 1109.18 228.502 1092.24 239.682C1054.95 264.323 1023.3 317.283 1023.3 317.283L1010.88 332.721Z" fill="#FDBD28"/>
<path d="M1219.3 445.484L1221.89 446.05L1222.43 443.466L1241.57 353.156C1241.73 352.444 1241.27 351.745 1240.56 351.587C1239.85 351.429 1239.15 351.89 1239 352.602L1219.86 442.899L1219.3 445.484Z" fill="#F87500"/>
<path d="M1078.68 413.736C1078.65 414.132 1078.79 414.514 1079.05 414.778H1079.07L1080.46 415.081H1080.48C1080.93 414.91 1081.26 414.488 1081.31 413.974C1081.35 413.539 1081.39 413.064 1081.43 412.589C1082.97 393.802 1084.79 345.799 1084.82 345.298C1084.84 344.573 1084.28 343.967 1083.54 343.927C1082.81 343.914 1082.21 344.468 1082.18 345.206C1082.15 345.694 1080.36 393.064 1078.83 412.023C1078.78 412.616 1078.74 413.196 1078.68 413.736Z" fill="#F87500"/>
<path d="M1137.17 275.753C1153.79 287.885 1167.2 254.209 1187.18 259.141C1205.57 263.683 1203.59 291.061 1222.5 292.418C1250.74 294.444 1251.25 225.865 1251.25 225.865C1226.24 214.883 1190.66 212.404 1157.35 217.269C1157.35 217.269 1117.65 261.509 1137.17 275.753Z" fill="#F87500"/>
<path d="M835.329 420.544H1107.21V435.178H835.329V420.544Z" fill="#013BFF"/>
<path d="M782.377 420.543H835.328V421.734H782.377V420.543Z" fill="#013BFF"/>
<path d="M782.377 433.989H835.328V435.18H782.377V433.989Z" fill="#013BFF"/>
<path d="M783.096 421.726H835.33V433.981H783.096V421.726Z" fill="#C6DDFF"/>
<path d="M783.096 423.486H835.33V424.041H783.096V423.486Z" fill="#A4C3F1"/>
<path d="M783.096 425.53H835.33V426.085H783.096V425.53Z" fill="#A4C3F1"/>
<path d="M783.096 427.576H835.33V428.131H783.096V427.576Z" fill="#A4C3F1"/>
<path d="M783.096 429.622H835.33V430.177H783.096V429.622Z" fill="#A4C3F1"/>
<path d="M783.096 431.665H835.33V432.221H783.096V431.665Z" fill="#A4C3F1"/>
<path d="M854.766 341.179H1070.39V361.405H854.766V341.179Z" fill="#013BFF"/>
<path d="M863.888 357.359H968.834C969.82 357.359 970.619 356.559 970.619 355.574V347.009C970.619 346.023 969.82 345.224 968.834 345.224H863.888C862.902 345.224 862.102 346.023 862.102 347.009V355.574C862.102 356.562 862.902 357.359 863.888 357.359Z" fill="#007AFF"/>
<path d="M801.813 341.178H854.764V342.369H801.813V341.178Z" fill="#013BFF"/>
<path d="M801.813 360.216H854.764V361.407H801.813V360.216Z" fill="#013BFF"/>
<path d="M802.529 342.35H854.764V360.188H802.529V342.35Z" fill="#C6DDFF"/>
<path d="M802.529 346.048H854.764V346.603H802.529V346.048Z" fill="#A4C3F1"/>
<path d="M802.529 350.002H854.764V350.557H802.529V350.002Z" fill="#A4C3F1"/>
<path d="M802.529 353.958H854.764V354.513H802.529V353.958Z" fill="#A4C3F1"/>
<path d="M802.529 355.935H854.764V356.49H802.529V355.935Z" fill="#A4C3F1"/>
<path d="M802.529 357.914H854.764V358.47H802.529V357.914Z" fill="#A4C3F1"/>
<path d="M802.529 344.069H854.764V344.624H802.529V344.069Z" fill="#A4C3F1"/>
<path d="M802.529 348.025H854.764V348.58H802.529V348.025Z" fill="#A4C3F1"/>
<path d="M802.529 351.981H854.764V352.536H802.529V351.981Z" fill="#A4C3F1"/>
<path d="M837.83 298.864H1087.17V341.281H837.83V298.864Z" fill="#007AFF"/>
<path d="M879.476 307.162H1067.24V332.983H879.476V307.162Z" fill="#013BFF"/>
<path d="M848.778 298.864H859.842V341.281H848.778V298.864Z" fill="#013BFF"/>
<path d="M779.999 338.241H837.828V341.178H779.999V338.241Z" fill="#007AFF"/>
<path d="M779.999 298.864H837.828V301.801H779.999V298.864Z" fill="#007AFF"/>
<path d="M785.594 301.807H837.828V338.244H785.594V301.807Z" fill="#C6DDFF"/>
<path d="M785.594 324.651H837.828V325.206H785.594V324.651Z" fill="#A4C3F1"/>
<path d="M785.594 328.571H837.828V329.126H785.594V328.571Z" fill="#A4C3F1"/>
<path d="M785.594 332.494H837.828V333.049H785.594V332.494Z" fill="#A4C3F1"/>
<path d="M785.594 334.454H837.828V335.009H785.594V334.454Z" fill="#A4C3F1"/>
<path d="M785.594 336.414H837.828V336.969H785.594V336.414Z" fill="#A4C3F1"/>
<path d="M785.594 322.691H837.828V323.246H785.594V322.691Z" fill="#A4C3F1"/>
<path d="M785.594 326.611H837.828V327.166H785.594V326.611Z" fill="#A4C3F1"/>
<path d="M785.594 330.531H837.828V331.086H785.594V330.531Z" fill="#A4C3F1"/>
<path d="M785.594 308.967H837.828V309.522H785.594V308.967Z" fill="#A4C3F1"/>
<path d="M785.594 312.887H837.828V313.442H785.594V312.887Z" fill="#A4C3F1"/>
<path d="M785.594 316.807H837.828V317.363H785.594V316.807Z" fill="#A4C3F1"/>
<path d="M785.594 318.77H837.828V319.326H785.594V318.77Z" fill="#A4C3F1"/>
<path d="M785.594 320.73H837.828V321.286H785.594V320.73Z" fill="#A4C3F1"/>
<path d="M785.594 307.007H837.828V307.562H785.594V307.007Z" fill="#A4C3F1"/>
<path d="M785.594 305.047H837.828V305.602H785.594V305.047Z" fill="#A4C3F1"/>
<path d="M785.594 303.084H837.828V303.639H785.594V303.084Z" fill="#A4C3F1"/>
<path d="M785.594 310.927H837.828V311.482H785.594V310.927Z" fill="#A4C3F1"/>
<path d="M785.594 314.847H837.828V315.403H785.594V314.847Z" fill="#A4C3F1"/>
<path d="M797.293 366.324H848.775V415.624H797.293V366.324Z" fill="#C6DDFF"/>
<path d="M797.293 367.54H848.775V368.095H797.293V367.54Z" fill="#A4C3F1"/>
<path d="M797.293 369.47H848.775V370.025H797.293V369.47Z" fill="#A4C3F1"/>
<path d="M797.293 371.399H848.775V371.954H797.293V371.399Z" fill="#A4C3F1"/>
<path d="M797.293 373.329H848.775V373.884H797.293V373.329Z" fill="#A4C3F1"/>
<path d="M797.293 375.258H848.775V375.814H797.293V375.258Z" fill="#A4C3F1"/>
<path d="M797.293 377.188H848.775V377.743H797.293V377.188Z" fill="#A4C3F1"/>
<path d="M797.293 379.117H848.775V379.673H797.293V379.117Z" fill="#A4C3F1"/>
<path d="M797.293 381.047H848.775V381.602H797.293V381.047Z" fill="#A4C3F1"/>
<path d="M797.293 382.979H848.775V383.535H797.293V382.979Z" fill="#A4C3F1"/>
<path d="M797.293 384.909H848.775V385.464H797.293V384.909Z" fill="#A4C3F1"/>
<path d="M797.293 386.838H848.775V387.394H797.293V386.838Z" fill="#A4C3F1"/>
<path d="M797.293 388.768H848.775V389.323H797.293V388.768Z" fill="#A4C3F1"/>
<path d="M797.293 390.698H848.775V391.253H797.293V390.698Z" fill="#A4C3F1"/>
<path d="M797.293 392.627H848.775V393.183H797.293V392.627Z" fill="#A4C3F1"/>
<path d="M797.293 394.557H848.775V395.112H797.293V394.557Z" fill="#A4C3F1"/>
<path d="M797.293 396.486H848.775V397.041H797.293V396.486Z" fill="#A4C3F1"/>
<path d="M797.293 398.416H848.775V398.971H797.293V398.416Z" fill="#A4C3F1"/>
<path d="M797.293 400.345H848.775V400.901H797.293V400.345Z" fill="#A4C3F1"/>
<path d="M797.293 402.278H848.775V402.833H797.293V402.278Z" fill="#A4C3F1"/>
<path d="M797.293 404.207H848.775V404.763H797.293V404.207Z" fill="#A4C3F1"/>
<path d="M797.293 406.137H848.775V406.692H797.293V406.137Z" fill="#A4C3F1"/>
<path d="M797.293 408.067H848.775V408.622H797.293V408.067Z" fill="#A4C3F1"/>
<path d="M797.293 409.996H848.775V410.551H797.293V409.996Z" fill="#A4C3F1"/>
<path d="M797.293 411.925H848.775V412.481H797.293V411.925Z" fill="#A4C3F1"/>
<path d="M797.293 413.855H848.775V414.41H797.293V413.855Z" fill="#A4C3F1"/>
<path d="M848.777 361.407H1092.46V420.543H848.777V361.407Z" fill="#007AFF"/>
<path d="M789.994 361.407H848.775V366.327H789.994V361.407Z" fill="#007AFF"/>
<path d="M789.994 415.626H848.775V420.543H789.994V415.626Z" fill="#007AFF"/>
<path d="M874.718 361.407H899.625V420.543H874.718V361.407Z" fill="#013BFF"/>
<path d="M1052.42 409.716C1042.07 409.716 1033.68 401.325 1033.68 390.975C1033.68 380.625 1042.07 372.235 1052.42 372.235C1062.77 372.235 1071.16 380.625 1071.16 390.975C1071.16 401.325 1062.77 409.716 1052.42 409.716Z" fill="#013BFF"/>
<path d="M1166.11 150.439C1166.9 150.479 1167.7 150.479 1168.53 150.413C1170.22 150.281 1171.93 150.044 1173.67 149.741C1188.09 147.17 1203.77 138.969 1212.17 133.696C1213.82 132.667 1216.02 132.931 1217.29 134.408C1218.22 135.502 1219.09 137.15 1219.38 139.576C1220.08 145.653 1220.41 157.005 1234.45 152.667V131.494C1234.45 125.482 1232.83 119.523 1229.5 114.513C1226.16 109.503 1220.79 104.849 1212.41 105.02C1211.28 105.047 1210.13 105.1 1208.96 105.192C1191.78 106.616 1171.68 115.449 1157.04 122.16C1142.18 128.976 1150.63 149.582 1166.11 150.439Z" fill="#5B2F2E"/>
<path d="M1160.43 186.379C1163.35 196.731 1174.68 204.48 1178.79 206.906C1179.21 207.17 1179.53 207.565 1179.65 208.04C1179.65 208.04 1179.65 208.04 1179.66 208.04C1179.77 208.396 1179.77 208.792 1179.65 209.174C1177.84 215.001 1176.6 218.89 1175.76 221.593C1173.68 228.264 1173.99 227.645 1173.99 231.02C1173.99 240.815 1182.84 254.751 1201.11 254.751C1214.06 254.751 1224.35 241.422 1229.26 233.657C1231.3 230.413 1232.29 226.629 1232.08 222.806L1229.64 177.809C1230.96 177.809 1245.19 176.965 1245.19 165.284C1245.19 153.617 1234.45 152.667 1234.45 152.667C1220.41 157.005 1220.08 145.653 1219.38 139.576C1219.09 137.15 1218.22 135.502 1217.29 134.408C1216.02 132.931 1213.82 132.667 1212.17 133.696C1202.76 139.602 1184.2 149.187 1168.53 150.413C1167.7 150.479 1166.9 150.479 1166.11 150.439C1166.19 154.184 1164.66 157.149 1163.87 161.474C1162.1 171.132 1157.76 176.93 1160.43 186.379Z" fill="#946E6B"/>
<path d="M1175.76 221.593C1196.9 221.593 1212.66 201.923 1217.09 195.753C1217.37 195.37 1216.89 194.896 1216.5 195.159C1196.4 208.264 1180.2 208.053 1179.66 208.04C1179.77 208.396 1179.77 208.792 1179.65 209.174C1177.83 215.001 1176.59 218.891 1175.76 221.593Z" fill="#582F2B"/>
<path d="M1166.11 150.439C1166.9 150.479 1167.7 150.479 1168.53 150.413C1170.22 150.281 1171.93 150.044 1173.67 149.741C1174.58 144.678 1174.72 139.417 1176.79 134.724C1179.9 127.723 1186.71 123.254 1192.99 118.877C1196.13 116.688 1199.23 114.407 1202.1 111.876C1203.23 110.874 1206.05 108.303 1208.96 105.192C1191.78 106.616 1171.68 115.449 1157.04 122.16C1142.18 128.976 1150.63 149.582 1166.11 150.439Z" fill="#542221"/>
<path d="M1049.3 468.714C1049.3 468.714 1021.32 451.192 1013.7 436.782C998.552 420.343 990.269 405.096 988.858 401.984C987.447 398.873 989.702 394.351 992.246 396.052C994.791 397.752 1003.25 410.506 1004.09 409.939C1004.93 409.373 1007.9 407.54 1006.78 405.417C1005.65 403.295 992.224 381.963 992.092 380.276C991.96 378.641 991.683 370.348 997.59 369.715C998.038 369.662 998.407 369.333 998.552 368.898C999.053 367.316 1000.33 363.743 1001.85 362.332C1003.48 360.816 1007.35 364.995 1009.02 366.881C1009.32 367.223 1009.86 367.197 1010.11 366.815C1011.06 365.364 1013.5 364.415 1015.05 365.364C1016.77 366.419 1030.84 388.067 1035.36 393.618C1035.7 394.04 1036.31 393.974 1036.63 393.539C1021.42 354.274 1039.77 357.577 1047.79 401.08C1052.69 405.22 1059.66 408.054 1066.62 410.691L1049.3 468.714Z" fill="#946E6B"/>
<path d="M1049.3 470.032C1049.73 470.032 1050.17 469.808 1050.42 469.412C1050.8 468.793 1050.61 467.989 1049.99 467.593C1049.72 467.422 1022.23 450.098 1014.86 436.162C1014.52 435.516 1013.73 435.266 1013.08 435.609C1012.43 435.952 1012.2 436.743 1012.53 437.389C1020.23 451.944 1047.44 469.096 1048.58 469.821C1048.82 469.966 1049.06 470.032 1049.3 470.032Z" fill="#582F2B"/>
<path d="M1012.01 398.456C1012.25 398.456 1012.49 398.39 1012.71 398.259C1013.33 397.876 1013.52 397.059 1013.13 396.439C1007.39 387.171 1000.82 374.382 1000.75 374.251C1000.42 373.605 999.62 373.341 998.974 373.684C998.328 374.013 998.064 374.804 998.407 375.463C998.473 375.595 1005.09 388.476 1010.89 397.837C1011.14 398.232 1011.56 398.456 1012.01 398.456Z" fill="#582F2B"/>
<path d="M1020.49 393.183C1020.77 393.183 1021.06 393.09 1021.29 392.906C1021.87 392.457 1021.98 391.64 1021.53 391.06C1017.89 386.34 1010.83 370.941 1010.76 370.783C1010.46 370.124 1009.68 369.834 1009.01 370.137C1008.35 370.44 1008.06 371.218 1008.36 371.89C1008.65 372.536 1015.62 387.711 1019.43 392.668C1019.7 393.011 1020.09 393.183 1020.49 393.183Z" fill="#582F2B"/>
<path d="M1066.08 413.855C1066.69 413.855 1067.24 413.433 1067.37 412.814C1067.52 412.102 1067.07 411.403 1066.36 411.258C1044.71 406.696 1037.34 394 1037.27 393.868C1036.92 393.235 1036.11 393.011 1035.48 393.367C1034.85 393.723 1034.62 394.527 1034.96 395.16C1035.28 395.727 1042.9 409.017 1065.82 413.842C1065.89 413.842 1065.99 413.855 1066.08 413.855Z" fill="#582F2B"/>
<path d="M1049.3 468.714C1049.3 468.714 1049.58 468.885 1050.21 469.215C1050.29 469.254 1050.37 469.294 1050.46 469.347C1052.34 470.322 1056.71 472.458 1064.92 475.78C1065.32 475.939 1065.71 476.11 1066.12 476.268C1066.75 476.519 1067.4 476.782 1068.07 477.046C1068.52 477.217 1068.98 477.402 1069.44 477.587C1070.1 477.837 1070.78 478.101 1071.46 478.365C1073.41 479.116 1075.51 479.907 1077.76 480.738C1079.07 481.225 1080.44 481.726 1081.86 482.241C1083.47 482.821 1085.15 483.414 1086.89 484.034C1088.77 484.693 1090.74 485.392 1092.81 486.103C1095.07 486.881 1097.45 487.699 1099.94 488.529C1099.94 488.529 1099.94 488.529 1099.95 488.529C1099.96 488.543 1099.99 488.542 1100.03 488.556C1111.22 492.313 1124.68 496.611 1140.83 501.476C1213.29 523.295 1273.06 558.905 1305.16 512.59C1305.77 511.72 1306.37 510.823 1306.95 509.887C1338.59 459.525 1337.08 367.764 1337.08 334.989C1337.08 310.519 1316.8 277.111 1289.13 251.877C1276.96 362.873 1233.49 447.237 1233.49 447.237L1084.82 414.686L1066.62 410.704L1049.3 468.714Z" fill="#FDBD28"/>
<path d="M1066.35 411.996L1079.04 414.778H1079.06L1080.45 415.081H1080.47L1219.29 445.484L1221.88 446.051L1233.22 448.529C1233.31 448.542 1233.4 448.555 1233.49 448.555C1234.1 448.555 1234.64 448.134 1234.79 447.514C1234.94 446.802 1234.48 446.103 1233.77 445.945L1222.42 443.466L1219.85 442.9L1081.42 412.59L1078.82 412.023L1066.9 409.412C1066.19 409.267 1065.49 409.715 1065.33 410.427C1065.17 411.139 1065.65 411.838 1066.35 411.996Z" fill="#F87500"/>
<path d="M1100.03 488.556C1103.92 490.467 1235.38 553.948 1273.04 553.843C1288.37 553.803 1301.22 545.102 1308.27 539.09C1307.94 534.726 1307.7 531.615 1307.7 531.615C1306.46 525.88 1306.36 519.947 1306.52 515.741L1305.16 512.59C1273.06 558.905 1213.29 523.295 1140.83 501.476C1124.68 496.611 1111.23 492.313 1100.03 488.556Z" fill="#F87500"/>
<path d="M1049.3 468.714C1049.3 468.714 1049.57 468.885 1050.21 469.215C1050.29 469.254 1050.36 469.294 1050.46 469.347C1052.34 470.322 1056.71 472.458 1064.92 475.78C1065.32 475.939 1065.71 476.11 1066.12 476.268C1066.75 476.519 1067.4 476.782 1068.07 477.046L1084.81 414.686L1066.62 410.704L1049.3 468.714Z" fill="#F87500"/>
<path d="M516.965 364.279C474.054 366.925 425.817 282.311 399.2 323.115C380.99 351.032 397.293 391.305 411.827 407.524C426.361 423.743 502.509 450.568 555.255 430.93C608.001 411.293 657.816 369.749 695.299 300.326C732.781 230.904 717.743 212.675 702.313 208.215C686.883 203.755 681.435 240.792 646.645 283.48C611.855 326.168 559.875 361.633 516.965 364.279Z" fill="#FAC897"/>
<path d="M516.965 364.279C474.055 366.925 425.817 282.311 399.2 323.115C380.99 351.032 397.293 391.305 411.827 407.524C426.362 423.743 502.509 450.568 555.256 430.93C608.002 411.293 657.817 369.749 695.299 300.326C698.389 294.603 701.123 289.228 703.528 284.179L661.262 263.556C657.035 269.954 652.216 276.645 646.645 283.48C611.856 326.168 559.876 361.633 516.965 364.279Z" fill="#013BFF"/>
<path d="M491.342 1033.06C491.457 1035.72 489.376 1037.8 486.717 1037.8H397.351C394.924 1037.8 392.958 1035.95 392.727 1033.52C392.265 1027.28 391.571 1017.11 390.646 1004.62C390.53 1003.81 390.531 1003.12 390.415 1002.31C390.068 997.801 389.721 992.945 389.374 987.974C389.374 987.165 389.259 986.471 389.259 985.662C384.288 916.181 376.311 804.849 376.079 797.566C375.848 790.167 366.946 770.167 356.31 746.698C352.611 738.605 348.796 730.166 344.98 721.611C345.096 720.108 345.327 718.605 345.443 717.102C345.79 714.674 346.021 712.246 346.368 709.819C346.483 708.894 346.599 707.853 346.715 706.928C346.83 706.003 346.946 704.963 347.177 704.038C347.408 702.651 347.524 701.264 347.755 699.876C348.449 695.714 349.027 691.552 349.836 687.622C350.067 686.234 350.298 684.963 350.53 683.691C350.53 683.46 350.645 683.344 350.645 683.113C351.108 680.685 351.57 678.373 352.033 676.061C352.264 674.789 352.495 673.517 352.842 672.361C353.073 671.205 353.304 670.049 353.536 668.893C353.651 668.43 353.767 667.968 353.882 667.621C354.114 666.581 354.345 665.656 354.576 664.615C355.617 659.991 356.657 655.713 357.697 651.436C357.929 650.395 358.276 649.239 358.507 648.199C359.663 643.921 360.703 639.991 361.859 636.06C362.091 635.366 362.206 634.673 362.437 633.979C364.172 628.083 365.906 622.765 367.524 618.025C367.64 617.562 367.871 616.984 367.987 616.522C368.334 615.597 368.68 614.557 369.027 613.632C369.143 613.169 369.374 612.707 369.49 612.244C369.605 611.782 369.836 611.32 369.952 610.857C370.53 609.239 371.108 607.736 371.571 606.348C371.686 605.886 371.917 605.423 372.149 604.961C373.305 601.955 374.345 599.412 375.154 597.331C375.386 596.868 375.501 596.406 375.733 596.059C376.657 593.863 377.351 592.36 377.698 591.435C377.813 591.204 377.813 591.088 377.929 590.972C377.929 590.857 377.929 590.857 378.045 590.741C378.045 590.625 378.16 590.626 378.16 590.626C400.242 591.666 442.439 585.885 442.439 585.885C443.133 591.55 467.873 702.42 475.85 742.767C476.659 746.814 477.237 750.166 477.7 752.594C480.937 771.67 486.717 908.551 489.723 985.431C489.723 986.24 489.839 986.934 489.839 987.743C490.07 992.83 490.186 997.686 490.417 1002.08C490.417 1002.89 490.417 1003.58 490.532 1004.39C490.879 1017.57 491.226 1027.63 491.342 1033.06Z" fill="#12A072"/>
<path d="M366.021 700.108C364.865 709.472 359.662 732.941 356.541 746.698C352.841 738.605 349.026 730.166 345.211 721.611C350.413 673.749 361.281 636.176 369.142 613.748C369.026 614.557 366.599 637.679 366.021 652.592C365.327 667.737 367.639 686.466 366.021 700.108Z" fill="#05794A"/>
<path d="M491.343 1033.06C491.459 1035.72 489.378 1037.8 486.719 1037.8H463.713C467.181 1032.72 479.436 1007.17 479.898 982.194C480.361 957.222 479.205 871.209 477.47 852.018C475.736 832.827 472.73 758.028 475.621 742.883C476.43 746.929 477.008 750.282 477.47 752.71C481.864 777.334 490.072 997.801 491.343 1033.06Z" fill="#05794A"/>
<path d="M490.303 1002.31H390.648C390.648 1003.12 390.764 1003.81 390.88 1004.62H490.419C490.303 1003.81 490.303 1003.12 490.303 1002.31ZM489.61 985.662H389.492C389.492 986.472 389.608 987.165 389.608 987.975H489.725C489.61 987.165 489.61 986.356 489.61 985.662Z" fill="#05794A"/>
<path d="M378.162 590.741C378.162 590.741 378.162 590.741 378.046 590.857C378.046 590.857 378.046 590.972 377.931 591.088C377.931 591.204 377.815 591.319 377.699 591.551C377.353 592.36 376.659 593.978 375.734 596.175C375.618 596.522 375.387 596.984 375.156 597.447C374.347 599.528 373.306 602.071 372.15 605.077C372.034 605.539 371.803 606.002 371.572 606.464C370.994 607.851 370.532 609.354 369.954 610.973C369.838 611.435 369.607 611.898 369.491 612.36C369.375 612.823 369.144 613.285 369.029 613.748C368.682 614.672 368.335 615.597 367.988 616.638C367.873 617.1 367.641 617.678 367.526 618.141C365.907 622.881 364.173 628.199 362.439 634.095C362.208 634.788 362.092 635.482 361.861 636.176C360.705 639.991 359.664 644.037 358.508 648.315C358.277 649.355 357.93 650.511 357.699 651.552C356.658 655.714 355.618 660.107 354.578 664.731C354.346 665.656 354.115 666.696 353.884 667.737C353.768 668.199 353.653 668.662 353.537 669.009C353.306 670.165 353.075 671.321 352.843 672.477C352.612 673.749 352.265 674.905 352.034 676.176C351.572 678.489 351.109 680.916 350.647 683.229C350.647 683.46 350.531 683.575 350.531 683.807C350.3 685.078 350.069 686.466 349.838 687.737C349.144 691.784 348.45 695.83 347.757 699.992C347.525 701.379 347.294 702.767 347.179 704.154C347.063 705.079 346.947 706.119 346.716 707.044C346.6 707.969 346.485 708.894 346.369 709.934C346.022 712.362 345.791 714.79 345.444 717.218C345.329 718.721 345.098 720.224 344.982 721.726C343.941 731.438 342.554 743.461 340.82 757.218C332.843 822.422 318.97 924.389 310.53 985.894C310.415 986.703 310.299 987.396 310.184 988.206C309.49 993.293 308.796 998.148 308.218 1002.54C308.218 1002.77 308.103 1003 308.103 1003.12C307.987 1003.7 307.987 1004.28 307.871 1004.74C306.022 1017.92 304.634 1027.86 303.941 1033.29C303.594 1035.95 301.282 1037.92 298.623 1037.92H211.916C208.91 1037.92 206.482 1035.49 206.598 1032.37C206.713 1025.66 207.291 1015.84 207.869 1004.62C207.869 1003.81 207.985 1003.12 207.985 1002.31C208.216 997.686 208.563 992.83 208.91 987.974C208.91 987.165 209.026 986.471 209.026 985.662C210.528 963.928 212.378 940.69 213.997 926.008C219.546 873.984 221.974 823 220.586 741.727C219.315 660.454 222.436 587.273 222.436 587.273C222.436 587.273 284.403 592.129 324.635 587.273C358.508 583.227 378.162 590.741 378.162 590.741Z" fill="#12A072"/>
<path d="M340.934 756.987C332.957 822.191 319.083 924.158 310.644 985.662C310.528 986.471 310.413 987.165 310.297 987.974C309.603 993.061 308.91 997.917 308.332 1002.31C308.216 1003.12 308.101 1003.81 307.985 1004.62C306.135 1017.8 304.748 1027.74 304.054 1033.18C303.707 1035.84 301.395 1037.8 298.736 1037.8H287.407C287.06 1033.18 288.1 1019.42 289.719 1004.62C289.834 1003.81 289.834 1003.12 289.95 1002.31C290.528 997.454 291.106 992.599 291.684 987.974C291.8 987.165 291.915 986.471 292.031 985.662C293.187 977.107 294.343 969.477 295.499 964.737C299.199 948.551 301.511 943.927 305.095 923.117C308.679 902.308 312.378 870.978 321.627 826.468C330.76 782.652 340.702 757.681 340.934 756.987Z" fill="#05794A"/>
<path d="M208.332 1002.31C208.332 1003.12 208.217 1003.81 208.217 1004.62H308.103C308.219 1004.04 308.219 1003.58 308.334 1003C308.334 1002.77 308.334 1002.54 308.45 1002.43H208.332V1002.31ZM209.373 985.662C209.373 986.471 209.257 987.165 209.257 987.974H310.415C310.531 987.165 310.647 986.471 310.762 985.662H209.373Z" fill="#05794A"/>
<path d="M287.522 1134.68C287.406 1136.65 285.787 1138.27 283.822 1138.27H203.242C201.162 1138.27 199.543 1136.65 199.543 1134.57V1128.79C199.543 1128.44 199.659 1128.09 199.774 1127.63C201.624 1121.97 214.11 1104.97 216.191 1099.19C218.503 1092.95 218.965 1075.26 219.197 1071.91C219.428 1068.55 223.705 1068.78 224.515 1069.94C224.861 1070.4 225.671 1070.75 226.711 1071.1C226.942 1071.21 227.058 1071.21 227.289 1071.33C227.52 1071.44 227.636 1071.44 227.867 1071.56C228.676 1071.91 229.486 1072.25 230.295 1072.83C231.451 1073.52 232.838 1073.64 233.995 1072.83C246.596 1064.62 260.931 1070.06 263.59 1071.56C265.556 1072.72 270.065 1073.52 273.764 1072.83C274.111 1072.72 274.573 1072.72 274.92 1072.6C276.076 1072.25 277.117 1071.68 277.81 1070.98C277.926 1070.87 278.157 1070.63 278.273 1070.52C281.394 1068.09 283.938 1072.25 283.706 1074.45C283.475 1076.65 281.51 1112.6 285.209 1121.27C286.134 1123.47 286.712 1125.66 287.059 1127.63C287.637 1130.29 287.637 1132.72 287.522 1134.68Z" fill="black"/>
<path d="M274.802 1072.48C274.455 1072.6 273.993 1072.6 273.646 1072.72C274.224 1075.95 269.022 1086.01 268.328 1086.7C267.172 1087.63 263.819 1093.87 266.131 1102.31C267.75 1108.32 264.282 1113.18 255.495 1117.11C250.062 1119.54 229.483 1120.12 225.899 1116.42C222.316 1112.72 224.165 1105.55 225.899 1103.58C227.98 1101.27 231.449 1091.68 229.136 1085.9C227.287 1081.04 227.634 1072.72 227.634 1071.33C227.402 1071.21 227.287 1071.21 227.056 1071.1C226.824 1070.98 226.709 1070.98 226.477 1070.87V1070.98C226.477 1071.33 225.899 1080.69 227.98 1086.24C230.061 1091.44 226.94 1100.46 224.975 1102.66C223.009 1104.97 220.928 1112.83 224.975 1117.11C227.056 1119.19 233.414 1120.12 240.004 1120.12C246.478 1120.12 253.183 1119.31 255.842 1118.03C259.311 1116.42 269.715 1111.68 267.056 1101.85C264.744 1093.41 268.328 1087.86 268.906 1087.4C270.178 1086.82 275.496 1076.07 274.802 1072.48Z" fill="white"/>
<path d="M278.273 1037.8H227.174V1063.35H278.273V1037.8Z" fill="#FAC798"/>
<path d="M278.275 1063.35V1070.4C278.159 1070.52 277.928 1070.63 277.812 1070.87C274.46 1074.22 266.367 1073.18 263.592 1071.56C260.933 1070.06 246.598 1064.51 233.996 1072.83C232.84 1073.64 231.453 1073.52 230.297 1072.83C229.256 1072.14 228.216 1071.68 227.291 1071.33V1063.47H278.275V1063.35Z" fill="#3F3F3F"/>
<path d="M278.273 1037.8H227.174V1044.28H278.273V1037.8Z" fill="#ECB582"/>
<path d="M287.522 1134.68C287.406 1136.65 285.787 1138.27 283.822 1138.27H203.242C201.162 1138.27 199.543 1136.65 199.543 1134.57V1128.79C199.543 1128.44 199.659 1128.09 199.774 1127.63H287.175C287.637 1130.29 287.637 1132.72 287.522 1134.68Z" fill="#E72722"/>
<path d="M561.632 1134.68C561.516 1136.65 559.898 1138.27 557.932 1138.27H402.207C400.126 1138.27 398.507 1136.65 398.507 1134.57V1128.79C398.507 1128.79 398.507 1128.32 398.507 1127.63C398.276 1120.81 398.161 1086.24 415.964 1073.41C429.491 1091.79 452.381 1089.94 467.064 1077.69C469.029 1076.07 470.879 1074.22 472.497 1072.25C473.538 1070.98 475.619 1070.98 476.659 1072.25C486.139 1084.28 492.035 1089.36 501.168 1093.87C510.88 1098.61 532.267 1100 543.481 1103.58C554.695 1107.17 555.852 1112.72 559.551 1121.39C560.476 1123.58 561.054 1125.78 561.401 1127.75C561.632 1130.29 561.748 1132.72 561.632 1134.68Z" fill="black"/>
<path d="M466.947 1037.8H415.848V1063.35H466.947V1037.8Z" fill="#FAC798"/>
<path d="M466.832 1063.35V1077.57C452.149 1089.83 429.259 1091.79 415.732 1073.29V1063.35H466.832Z" fill="#3F3F3F"/>
<path d="M521.862 1111.68C484.867 1111.68 453.306 1085.9 452.959 1085.55L453.653 1084.62C454.115 1084.97 501.977 1124.28 548.799 1105.32L549.261 1106.36C540.013 1110.17 530.764 1111.68 521.862 1111.68Z" fill="white"/>
<path d="M466.947 1037.8H415.848V1044.28H466.947V1037.8Z" fill="#ECB582"/>
<path d="M561.63 1134.68C561.515 1136.65 559.896 1138.27 557.931 1138.27H402.205C400.124 1138.27 398.506 1136.65 398.506 1134.57V1128.79C398.506 1128.79 398.506 1128.32 398.506 1127.63H561.284C561.63 1130.29 561.746 1132.72 561.63 1134.68Z" fill="#E72722"/>
<path d="M221.591 611.172H447.685C439.153 492.439 469.829 435.491 461.351 351.479C454.279 281.406 216.506 273.105 216.506 341.573C207.047 412.031 213.708 550.663 221.591 611.172Z" fill="#007AFF"/>
<path d="M352.79 507.557C363.585 525.932 377.906 518.568 377.047 487.344C373.678 364.715 355.218 378.268 342.678 320.186C341.085 317.524 337.137 313.796 334.087 320.186C321.01 347.586 321.123 453.655 352.79 507.557Z" fill="#003CFE"/>
<path d="M364.077 276.661C365.536 281.282 365.901 285.659 365.901 289.914C365.901 296.967 370.539 303.856 368.576 312.53C362.833 337.909 315.718 334.243 301.946 312.165C293.577 298.747 301.946 286.145 301.217 271.676C300.609 260.369 299.879 250.277 299.393 245.535C299.271 244.076 298.056 242.86 296.597 242.617C289.666 241.401 269.847 236.051 268.51 214.895C266.929 189.727 292.341 193.739 303.284 213.193C307.053 220.002 314.227 221.218 311.43 214.895C308.634 208.694 302.554 191.672 309.85 188.632C316.78 185.836 338.787 183.769 346.447 165.166C346.812 164.193 348.271 164.193 348.636 165.288C349.487 168.206 350.095 173.799 349.244 178.541C349.122 179.149 349.852 179.635 350.338 179.149C353.013 176.595 358.363 171.002 359.822 165.045C360.065 164.193 360.916 163.95 361.646 164.437C364.564 166.625 371.373 172.097 377.695 180.972C382.802 188.268 387.544 197.751 389.368 209.667C394.109 239.821 393.258 268.758 365.415 274.23C364.442 274.594 363.834 275.689 364.077 276.661Z" fill="#FAC897"/>
<path d="M365.902 289.915C365.902 289.915 337.937 289.185 330.52 270.339C330.277 269.731 330.885 269.123 331.492 269.366C335.626 270.582 347.785 274.108 361.768 274.716C362.74 274.716 363.591 275.446 363.956 276.297C365.658 281.039 365.902 285.537 365.902 289.915Z" fill="#F9A888"/>
<path d="M377.816 181.094C360.608 163.342 361.398 168.331 350.459 179.27C348.502 181.226 309.014 181.094 311.551 215.016C314.347 221.217 307.174 220.123 303.405 213.314C292.462 193.86 267.05 189.848 268.631 215.016C269.968 236.051 289.787 241.522 296.717 242.738C298.176 242.981 299.271 244.197 299.514 245.656C300 250.398 300.851 260.49 301.338 271.798C298.42 276.661 286.382 269.852 283.586 265.232C268.976 240.458 247.475 221.02 247.475 190.213C247.475 144.63 304.216 161.608 331.37 132.58C390.278 69.6073 377.689 130.488 384.99 163.342C385.598 166.503 384.26 173.798 377.816 181.094Z" fill="#F97600"/>
<path d="M303.404 213.314C307.173 220.123 314.347 221.217 311.551 215.016C309.014 181.094 348.502 181.226 350.458 179.27C361.397 168.331 360.608 163.342 377.815 181.094C384.26 173.798 385.597 166.503 384.989 163.342C380.943 145.133 383.006 118.314 375.62 108.745C377.815 132.58 379.675 154.154 372.123 158.748C364.572 163.342 353.999 156.35 345.692 167.81C337.386 179.27 308.688 181.964 306.046 197.639C303.404 213.314 295.897 180.898 271.686 190.213C247.474 199.527 267.177 237.967 301.337 271.798C300.851 260.49 300 250.398 299.513 245.656C299.27 244.197 298.176 242.981 296.717 242.738C289.786 241.522 269.968 236.051 268.63 215.016C267.05 189.848 292.461 193.86 303.404 213.314Z" fill="#F17200"/>
<path d="M400.331 444.292C396.345 435.522 395.671 425.529 398.895 416.451C401.642 408.729 407.379 400.941 419.175 398.493C444.921 393.152 454.343 419.221 452.775 432.716C451.207 446.219 445.866 471.027 436.136 487.036C426.399 503.052 413.841 517.808 411.958 522.834C410.075 527.86 408.815 532.989 410.705 536.857C412.588 540.733 409.137 550.045 404.111 541.466C399.085 532.886 399.085 523.984 406.309 507.551C413.533 491.117 413.218 478.874 411.335 468.822C409.87 461.063 404.851 454.235 400.331 444.292Z" fill="#C6DDFF"/>
<path fill-rule="evenodd" clip-rule="evenodd" d="M433.308 557.687V607.508C433.308 609.531 431.668 611.172 429.645 611.172H390.652C388.629 611.172 386.989 609.531 386.989 607.508V597.61C380.842 596.775 375.567 593.221 372.468 588.225C370.592 585.213 369.508 581.667 369.508 577.879C369.508 575.205 370.043 572.655 371.024 570.326C373.713 563.886 379.75 559.123 386.989 558.141V557.687C386.989 553.782 390.154 550.617 394.059 550.617H426.238C430.143 550.617 433.308 553.782 433.308 557.687ZM386.989 563.336V592.415C383.882 591.851 381.098 590.349 378.966 588.225C376.292 585.558 374.636 581.902 374.636 577.879C374.636 575.124 375.413 572.538 376.761 570.326C378.952 566.736 382.652 564.127 386.989 563.336Z" fill="white"/>
<path d="M427.346 559.467H392.962C390.969 559.467 389.35 557.848 389.35 555.855C389.35 553.863 390.969 552.243 392.962 552.243H427.346C429.338 552.243 430.958 553.863 430.958 555.855C430.958 557.848 429.338 559.467 427.346 559.467Z" fill="#D3D0D0"/>
<path d="M194.045 382.472C215.011 328.749 230.44 298.224 265.457 314.335C298.747 329.652 292.974 370.024 270.699 408.024C248.423 446.023 233.354 487.298 233.354 520.712C233.354 554.125 290.596 553.98 334.25 556.091C385.119 558.55 395.75 580.344 376.18 596.056C360.179 608.903 280.526 602.607 227.458 596.056C174.39 589.504 148.183 566.573 151.459 546.263C154.735 525.953 173.079 436.196 194.045 382.472Z" fill="#FAC897"/>
<path d="M194.043 382.472C215.009 328.749 230.438 298.224 265.455 314.335C298.745 329.652 292.972 370.024 270.697 408.024C248.421 446.023 240.352 484.299 240.352 517.712C240.352 549.543 285.3 553.918 327.961 555.802L324.034 603.49C293.793 603.178 256.612 599.655 227.456 596.056C174.388 589.504 148.181 566.573 151.457 546.263C154.733 525.953 173.077 436.196 194.043 382.472Z" fill="#013BFF"/>
</svg>
